<svg data-v-fde0c5aa="" xmlns="http://www.w3.org/2000/svg" viewBox="0 0 300 300" class="iconAbove"><!----><defs data-v-fde0c5aa=""><!----></defs><rect data-v-fde0c5aa="" fill="transparent" x="0" y="0" width="300px" height="300px" class="logo-background-square"></rect><defs data-v-fde0c5aa=""><!----></defs><g data-v-fde0c5aa="" id="f5b4d5c1-3e08-48f6-b682-678051de56d3" fill="#000000" transform="matrix(3.1718921661376953,0,0,3.1718921661376953,17.843113343580008,168.0557520300686)"><path d="M5.54 3.63L9.30 13.64L8.12 13.64L7.10 10.77L2.77 10.77L1.74 13.64L0.68 13.64L4.44 3.63L5.54 3.63ZM4.56 5.76L3.10 9.86L6.77 9.86L5.31 5.76L5.00 4.63L4.86 4.63L4.56 5.76ZM16.28 12.43L16.28 13.10L16.28 13.10Q16.09 13.23 15.86 13.35L15.86 13.35L15.86 13.35Q15.63 13.47 15.35 13.57L15.35 13.57L15.35 13.57Q15.07 13.67 14.76 13.72L14.76 13.72L14.76 13.72Q14.44 13.78 14.10 13.78L14.10 13.78L14.10 13.78Q13.38 13.78 12.77 13.52L12.77 13.52L12.77 13.52Q12.16 13.25 11.72 12.79L11.72 12.79L11.72 12.79Q11.28 12.32 11.03 11.67L11.03 11.67L11.03 11.67Q10.79 11.02 10.79 10.25L10.79 10.25L10.79 10.25Q10.79 9.38 11.09 8.64L11.09 8.64L11.09 8.64Q11.40 7.91 11.93 7.38L11.93 7.38L11.93 7.38Q12.45 6.86 13.14 6.56L13.14 6.56L13.14 6.56Q13.84 6.26 14.61 6.26L14.61 6.26L14.61 6.26Q14.83 6.26 15.07 6.29L15.07 6.29L15.07 6.29Q15.31 6.31 15.54 6.36L15.54 6.36L15.54 6.36Q15.77 6.41 15.97 6.47L15.97 6.47L15.97 6.47Q16.16 6.54 16.29 6.62L16.29 6.62L16.06 7.53L15.90 7.60L15.90 7.60Q15.76 7.51 15.58 7.42L15.58 7.42L15.58 7.42Q15.39 7.34 15.19 7.28L15.19 7.28L15.19 7.28Q14.99 7.23 14.78 7.19L14.78 7.19L14.78 7.19Q14.57 7.16 14.36 7.16L14.36 7.16L14.36 7.16Q13.88 7.16 13.42 7.35L13.42 7.35L13.42 7.35Q12.96 7.55 12.60 7.92L12.60 7.92L12.60 7.92Q12.24 8.29 12.03 8.83L12.03 8.83L12.03 8.83Q11.81 9.37 11.81 10.07L11.81 10.07L11.81 10.07Q11.81 10.76 12.03 11.28L12.03 11.28L12.03 11.28Q12.24 11.81 12.61 12.15L12.61 12.15L12.61 12.15Q12.97 12.50 13.45 12.68L13.45 12.68L13.45 12.68Q13.92 12.86 14.45 12.86L14.45 12.86L14.45 12.86Q14.82 12.86 15.31 12.76L15.31 12.76L15.31 12.76Q15.80 12.67 16.28 12.43L16.28 12.43ZM23.42 12.43L23.42 13.10L23.42 13.10Q23.24 13.23 23.00 13.35L23.00 13.35L23.00 13.35Q22.77 13.47 22.49 13.57L22.49 13.57L22.49 13.57Q22.22 13.67 21.90 13.72L21.90 13.72L21.90 13.72Q21.59 13.78 21.24 13.78L21.24 13.78L21.24 13.78Q20.52 13.78 19.91 13.52L19.91 13.52L19.91 13.52Q19.30 13.25 18.86 12.79L18.86 12.79L18.86 12.79Q18.42 12.32 18.18 11.67L18.18 11.67L18.18 11.67Q17.93 11.02 17.93 10.25L17.93 10.25L17.93 10.25Q17.93 9.38 18.24 8.64L18.24 8.64L18.24 8.64Q18.55 7.91 19.07 7.38L19.07 7.38L19.07 7.38Q19.59 6.86 20.29 6.56L20.29 6.56L20.29 6.56Q20.98 6.26 21.75 6.26L21.75 6.26L21.75 6.26Q21.98 6.26 22.22 6.29L22.22 6.29L22.22 6.29Q22.46 6.31 22.69 6.36L22.69 6.36L22.69 6.36Q22.91 6.41 23.11 6.47L23.11 6.47L23.11 6.47Q23.30 6.54 23.43 6.62L23.43 6.62L23.20 7.53L23.04 7.60L23.04 7.60Q22.90 7.51 22.72 7.42L22.72 7.42L22.72 7.42Q22.54 7.34 22.34 7.28L22.34 7.28L22.34 7.28Q22.13 7.23 21.92 7.19L21.92 7.19L21.92 7.19Q21.71 7.16 21.51 7.16L21.51 7.16L21.51 7.16Q21.02 7.16 20.56 7.35L20.56 7.35L20.56 7.35Q20.10 7.55 19.75 7.92L19.75 7.92L19.75 7.92Q19.39 8.29 19.17 8.83L19.17 8.83L19.17 8.83Q18.96 9.37 18.96 10.07L18.96 10.07L18.96 10.07Q18.96 10.76 19.17 11.28L19.17 11.28L19.17 11.28Q19.39 11.81 19.75 12.15L19.75 12.15L19.75 12.15Q20.12 12.50 20.59 12.68L20.59 12.68L20.59 12.68Q21.07 12.86 21.59 12.86L21.59 12.86L21.59 12.86Q21.96 12.86 22.45 12.76L22.45 12.76L22.45 12.76Q22.94 12.67 23.42 12.43L23.42 12.43ZM30.99 12.43L30.99 13.10L30.99 13.10Q30.76 13.25 30.46 13.38L30.46 13.38L30.46 13.38Q30.15 13.50 29.81 13.59L29.81 13.59L29.81 13.59Q29.48 13.69 29.13 13.73L29.13 13.73L29.13 13.73Q28.78 13.78 28.47 13.78L28.47 13.78L28.47 13.78Q27.82 13.78 27.21 13.55L27.21 13.55L27.21 13.55Q26.60 13.32 26.12 12.87L26.12 12.87L26.12 12.87Q25.65 12.41 25.36 11.72L25.36 11.72L25.36 11.72Q25.07 11.04 25.07 10.12L25.07 10.12L25.07 10.12Q25.07 9.22 25.35 8.50L25.35 8.50L25.35 8.50Q25.63 7.79 26.10 7.29L26.10 7.29L26.10 7.29Q26.57 6.79 27.17 6.53L27.17 6.53L27.17 6.53Q27.77 6.26 28.41 6.26L28.41 6.26L28.41 6.26Q28.98 6.26 29.50 6.47L29.50 6.47L29.50 6.47Q30.02 6.69 30.41 7.08L30.41 7.08L30.41 7.08Q30.80 7.47 31.02 8.04L31.02 8.04L31.02 8.04Q31.25 8.60 31.25 9.30L31.25 9.30L31.25 9.30Q31.25 9.45 31.24 9.68L31.24 9.68L31.24 9.68Q31.23 9.92 31.19 10.16L31.19 10.16L26.10 10.16L26.10 10.16Q26.10 10.75 26.30 11.24L26.30 11.24L26.30 11.24Q26.50 11.73 26.87 12.09L26.87 12.09L26.87 12.09Q27.23 12.46 27.77 12.66L27.77 12.66L27.77 12.66Q28.30 12.86 28.97 12.86L28.97 12.86L28.97 12.86Q29.14 12.86 29.38 12.84L29.38 12.84L29.38 12.84Q29.63 12.82 29.90 12.78L29.90 12.78L29.90 12.78Q30.17 12.73 30.46 12.65L30.46 12.65L30.46 12.65Q30.74 12.56 30.99 12.43L30.99 12.43ZM26.10 9.38L30.30 9.38L30.30 9.38Q30.30 8.83 30.13 8.41L30.13 8.41L30.13 8.41Q29.96 8.00 29.67 7.72L29.67 7.72L29.67 7.72Q29.39 7.44 29.03 7.30L29.03 7.30L29.03 7.30Q28.67 7.16 28.28 7.16L28.28 7.16L28.28 7.16Q27.81 7.16 27.41 7.35L27.41 7.35L27.41 7.35Q27.02 7.54 26.73 7.85L26.73 7.85L26.73 7.85Q26.44 8.17 26.28 8.57L26.28 8.57L26.28 8.57Q26.11 8.97 26.10 9.38L26.10 9.38ZM32.96 13.30L33.18 12.43L33.30 12.35L33.30 12.35Q33.56 12.50 33.84 12.60L33.84 12.60L33.84 12.60Q34.13 12.69 34.40 12.76L34.40 12.76L34.40 12.76Q34.67 12.82 34.93 12.85L34.93 12.85L34.93 12.85Q35.18 12.89 35.40 12.89L35.40 12.89L35.40 12.89Q35.75 12.89 36.05 12.80L36.05 12.80L36.05 12.80Q36.35 12.72 36.57 12.57L36.57 12.57L36.57 12.57Q36.79 12.41 36.91 12.20L36.91 12.20L36.91 12.20Q37.04 11.98 37.04 11.71L37.04 11.71L37.04 11.71Q37.04 11.39 36.87 11.18L36.87 11.18L36.87 11.18Q36.70 10.96 36.43 10.82L36.43 10.82L36.43 10.82Q36.16 10.67 35.80 10.56L35.80 10.56L35.80 10.56Q35.45 10.46 35.09 10.35L35.09 10.35L35.09 10.35Q34.72 10.24 34.37 10.10L34.37 10.10L34.37 10.10Q34.02 9.97 33.74 9.76L33.74 9.76L33.74 9.76Q33.47 9.56 33.30 9.26L33.30 9.26L33.30 9.26Q33.13 8.96 33.13 8.52L33.13 8.52L33.13 8.52Q33.13 8.06 33.33 7.65L33.33 7.65L33.33 7.65Q33.53 7.24 33.89 6.93L33.89 6.93L33.89 6.93Q34.25 6.62 34.74 6.44L34.74 6.44L34.74 6.44Q35.23 6.26 35.83 6.26L35.83 6.26L35.83 6.26Q36.00 6.26 36.22 6.28L36.22 6.28L36.22 6.28Q36.44 6.30 36.69 6.33L36.69 6.33L36.69 6.33Q36.93 6.36 37.20 6.42L37.20 6.42L37.20 6.42Q37.46 6.47 37.71 6.56L37.71 6.56L37.46 7.45L37.34 7.53L37.34 7.53Q37.16 7.45 36.94 7.38L36.94 7.38L36.94 7.38Q36.72 7.31 36.50 7.26L36.50 7.26L36.50 7.26Q36.27 7.21 36.05 7.18L36.05 7.18L36.05 7.18Q35.82 7.16 35.63 7.16L35.63 7.16L35.63 7.16Q35.28 7.16 34.99 7.24L34.99 7.24L34.99 7.24Q34.70 7.33 34.49 7.48L34.49 7.48L34.49 7.48Q34.28 7.64 34.16 7.85L34.16 7.85L34.16 7.85Q34.04 8.06 34.04 8.31L34.04 8.31L34.04 8.31Q34.04 8.62 34.21 8.83L34.21 8.83L34.21 8.83Q34.38 9.04 34.65 9.18L34.65 9.18L34.65 9.18Q34.93 9.33 35.28 9.44L35.28 9.44L35.28 9.44Q35.64 9.55 36.00 9.66L36.00 9.66L36.00 9.66Q36.37 9.78 36.73 9.92L36.73 9.92L36.73 9.92Q37.08 10.06 37.35 10.27L37.35 10.27L37.35 10.27Q37.63 10.49 37.80 10.79L37.80 10.79L37.80 10.79Q37.97 11.09 37.97 11.53L37.97 11.53L37.97 11.53Q37.97 12.04 37.74 12.46L37.74 12.46L37.74 12.46Q37.51 12.88 37.12 13.17L37.12 13.17L37.12 13.17Q36.74 13.46 36.23 13.62L36.23 13.62L36.23 13.62Q35.72 13.78 35.18 13.78L35.18 13.78L35.18 13.78Q34.70 13.78 34.11 13.66L34.11 13.66L34.11 13.66Q33.52 13.54 32.96 13.30L32.96 13.30ZM39.65 13.30L39.87 12.43L40.00 12.35L40.00 12.35Q40.26 12.50 40.54 12.60L40.54 12.60L40.54 12.60Q40.82 12.69 41.09 12.76L41.09 12.76L41.09 12.76Q41.36 12.82 41.62 12.85L41.62 12.85L41.62 12.85Q41.88 12.89 42.09 12.89L42.09 12.89L42.09 12.89Q42.44 12.89 42.75 12.80L42.75 12.80L42.75 12.80Q43.05 12.72 43.26 12.57L43.26 12.57L43.26 12.57Q43.48 12.41 43.61 12.20L43.61 12.20L43.61 12.20Q43.73 11.98 43.73 11.71L43.73 11.71L43.73 11.71Q43.73 11.39 43.56 11.18L43.56 11.18L43.56 11.18Q43.39 10.96 43.12 10.82L43.12 10.82L43.12 10.82Q42.85 10.67 42.50 10.56L42.50 10.56L42.50 10.56Q42.14 10.46 41.78 10.35L41.78 10.35L41.78 10.35Q41.41 10.24 41.06 10.10L41.06 10.10L41.06 10.10Q40.71 9.97 40.43 9.76L40.43 9.76L40.43 9.76Q40.16 9.56 39.99 9.26L39.99 9.26L39.99 9.26Q39.83 8.96 39.83 8.52L39.83 8.52L39.83 8.52Q39.83 8.06 40.02 7.65L40.02 7.65L40.02 7.65Q40.22 7.24 40.58 6.93L40.58 6.93L40.58 6.93Q40.94 6.62 41.43 6.44L41.43 6.44L41.43 6.44Q41.92 6.26 42.52 6.26L42.52 6.26L42.52 6.26Q42.69 6.26 42.91 6.28L42.91 6.28L42.91 6.28Q43.13 6.30 43.38 6.33L43.38 6.33L43.38 6.33Q43.63 6.36 43.89 6.42L43.89 6.42L43.89 6.42Q44.15 6.47 44.40 6.56L44.40 6.56L44.15 7.45L44.03 7.53L44.03 7.53Q43.85 7.45 43.63 7.38L43.63 7.38L43.63 7.38Q43.42 7.31 43.19 7.26L43.19 7.26L43.19 7.26Q42.96 7.21 42.74 7.18L42.74 7.18L42.74 7.18Q42.51 7.16 42.32 7.16L42.32 7.16L42.32 7.16Q41.97 7.16 41.68 7.24L41.68 7.24L41.68 7.24Q41.39 7.33 41.18 7.48L41.18 7.48L41.18 7.48Q40.97 7.64 40.85 7.85L40.85 7.85L40.85 7.85Q40.74 8.06 40.74 8.31L40.74 8.31L40.74 8.31Q40.74 8.62 40.90 8.83L40.90 8.83L40.90 8.83Q41.07 9.04 41.35 9.18L41.35 9.18L41.35 9.18Q41.62 9.33 41.98 9.44L41.98 9.44L41.98 9.44Q42.33 9.55 42.70 9.66L42.70 9.66L42.70 9.66Q43.07 9.78 43.42 9.92L43.42 9.92L43.42 9.92Q43.77 10.06 44.05 10.27L44.05 10.27L44.05 10.27Q44.32 10.49 44.49 10.79L44.49 10.79L44.49 10.79Q44.66 11.09 44.66 11.53L44.66 11.53L44.66 11.53Q44.66 12.04 44.43 12.46L44.43 12.46L44.43 12.46Q44.20 12.88 43.81 13.17L43.81 13.17L43.81 13.17Q43.43 13.46 42.92 13.62L42.92 13.62L42.92 13.62Q42.42 13.78 41.87 13.78L41.87 13.78L41.87 13.78Q41.39 13.78 40.80 13.66L40.80 13.66L40.80 13.66Q40.21 13.54 39.65 13.30L39.65 13.30ZM49.18 4.55L49.18 13.64L48.18 13.64L48.18 4.55L44.71 4.55L44.90 3.63L52.74 3.63L52.55 4.55L49.18 4.55ZM55.58 13.78L55.58 13.78L55.58 13.78Q54.79 13.78 54.16 13.48L54.16 13.48L54.16 13.48Q53.54 13.19 53.10 12.69L53.10 12.69L53.10 12.69Q52.67 12.19 52.44 11.53L52.44 11.53L52.44 11.53Q52.21 10.88 52.21 10.16L52.21 10.16L52.21 10.16Q52.21 9.34 52.49 8.63L52.49 8.63L52.49 8.63Q52.78 7.92 53.29 7.40L53.29 7.40L53.29 7.40Q53.79 6.87 54.48 6.57L54.48 6.57L54.48 6.57Q55.16 6.26 55.95 6.26L55.95 6.26L55.95 6.26Q56.75 6.26 57.38 6.56L57.38 6.56L57.38 6.56Q58.00 6.86 58.43 7.37L58.43 7.37L58.43 7.37Q58.86 7.88 59.09 8.53L59.09 8.53L59.09 8.53Q59.32 9.19 59.32 9.91L59.32 9.91L59.32 9.91Q59.32 10.72 59.03 11.43L59.03 11.43L59.03 11.43Q58.74 12.13 58.24 12.66L58.24 12.66L58.24 12.66Q57.74 13.18 57.05 13.48L57.05 13.48L57.05 13.48Q56.37 13.78 55.58 13.78ZM55.77 12.89L55.77 12.89L55.77 12.89Q56.34 12.89 56.81 12.65L56.81 12.65L56.81 12.65Q57.27 12.42 57.60 12.03L57.60 12.03L57.60 12.03Q57.93 11.64 58.11 11.13L58.11 11.13L58.11 11.13Q58.29 10.62 58.29 10.07L58.29 10.07L58.29 10.07Q58.29 9.53 58.12 9.01L58.12 9.01L58.12 9.01Q57.95 8.48 57.62 8.07L57.62 8.07L57.62 8.07Q57.30 7.66 56.83 7.41L56.83 7.41L56.83 7.41Q56.36 7.16 55.75 7.16L55.75 7.16L55.75 7.16Q55.19 7.16 54.73 7.39L54.73 7.39L54.73 7.39Q54.26 7.62 53.93 8.00L53.93 8.00L53.93 8.00Q53.59 8.39 53.41 8.91L53.41 8.91L53.41 8.91Q53.23 9.42 53.23 9.98L53.23 9.98L53.23 9.98Q53.23 10.51 53.40 11.03L53.40 11.03L53.40 11.03Q53.57 11.55 53.90 11.97L53.90 11.97L53.90 11.97Q54.22 12.38 54.69 12.63L54.69 12.63L54.69 12.63Q55.17 12.89 55.77 12.89ZM61.38 13.64L61.38 2.69L62.36 2.69L62.36 13.64L61.38 13.64ZM67.46 13.64L66.20 13.64L62.83 9.73L65.97 6.40L67.12 6.40L63.95 9.63L67.46 13.64ZM74.33 12.43L74.33 13.10L74.33 13.10Q74.11 13.25 73.80 13.38L73.80 13.38L73.80 13.38Q73.50 13.50 73.16 13.59L73.16 13.59L73.16 13.59Q72.82 13.69 72.47 13.73L72.47 13.73L72.47 13.73Q72.13 13.78 71.82 13.78L71.82 13.78L71.82 13.78Q71.17 13.78 70.56 13.55L70.56 13.55L70.56 13.55Q69.95 13.32 69.47 12.87L69.47 12.87L69.47 12.87Q69.00 12.41 68.71 11.72L68.71 11.72L68.71 11.72Q68.42 11.04 68.42 10.12L68.42 10.12L68.42 10.12Q68.42 9.22 68.70 8.50L68.70 8.50L68.70 8.50Q68.98 7.79 69.45 7.29L69.45 7.29L69.45 7.29Q69.92 6.79 70.52 6.53L70.52 6.53L70.52 6.53Q71.12 6.26 71.76 6.26L71.76 6.26L71.76 6.26Q72.33 6.26 72.85 6.47L72.85 6.47L72.85 6.47Q73.36 6.69 73.75 7.08L73.75 7.08L73.75 7.08Q74.14 7.47 74.37 8.04L74.37 8.04L74.37 8.04Q74.60 8.60 74.60 9.30L74.60 9.30L74.60 9.30Q74.60 9.45 74.59 9.68L74.59 9.68L74.59 9.68Q74.57 9.92 74.54 10.16L74.54 10.16L69.45 10.16L69.45 10.16Q69.45 10.75 69.64 11.24L69.64 11.24L69.64 11.24Q69.84 11.73 70.21 12.09L70.21 12.09L70.21 12.09Q70.58 12.46 71.11 12.66L71.11 12.66L71.11 12.66Q71.65 12.86 72.32 12.86L72.32 12.86L72.32 12.86Q72.49 12.86 72.73 12.84L72.73 12.84L72.73 12.84Q72.97 12.82 73.25 12.78L73.25 12.78L73.25 12.78Q73.52 12.73 73.80 12.65L73.80 12.65L73.80 12.65Q74.09 12.56 74.33 12.43L74.33 12.43ZM69.45 9.38L73.64 9.38L73.64 9.38Q73.64 8.83 73.47 8.41L73.47 8.41L73.47 8.41Q73.30 8.00 73.02 7.72L73.02 7.72L73.02 7.72Q72.74 7.44 72.38 7.30L72.38 7.30L72.38 7.30Q72.02 7.16 71.63 7.16L71.63 7.16L71.63 7.16Q71.16 7.16 70.76 7.35L70.76 7.35L70.76 7.35Q70.36 7.54 70.08 7.85L70.08 7.85L70.08 7.85Q69.79 8.17 69.62 8.57L69.62 8.57L69.62 8.57Q69.46 8.97 69.45 9.38L69.45 9.38ZM76.71 13.64L76.71 6.40L77.49 6.40L77.64 7.68L77.64 7.68Q77.88 7.44 78.18 7.18L78.18 7.18L78.18 7.18Q78.48 6.93 78.83 6.73L78.83 6.73L78.83 6.73Q79.17 6.52 79.57 6.39L79.57 6.39L79.57 6.39Q79.97 6.26 80.40 6.26L80.40 6.26L80.40 6.26Q80.89 6.26 81.30 6.44L81.30 6.44L81.30 6.44Q81.72 6.62 82.02 6.95L82.02 6.95L82.02 6.95Q82.32 7.27 82.49 7.74L82.49 7.74L82.49 7.74Q82.65 8.21 82.65 8.79L82.65 8.79L82.65 13.64L81.68 13.64L81.68 8.93L81.68 8.93Q81.68 8.50 81.56 8.18L81.56 8.18L81.56 8.18Q81.44 7.85 81.23 7.63L81.23 7.63L81.23 7.63Q81.03 7.41 80.73 7.30L80.73 7.30L80.73 7.30Q80.44 7.18 80.09 7.18L80.09 7.18L80.09 7.18Q79.48 7.18 78.89 7.52L78.89 7.52L78.89 7.52Q78.29 7.86 77.69 8.46L77.69 8.46L77.69 13.64L76.71 13.64Z"></path></g><defs data-v-fde0c5aa=""><linearGradient data-v-fde0c5aa="" gradientTransform="rotate(25)" id="5f46af06-f61c-4f55-9574-6050bf329082" x1="0%" y1="0%" x2="100%" y2="0%"><stop data-v-fde0c5aa="" offset="0%" stop-color="#B4373D" stop-opacity="1"></stop><stop data-v-fde0c5aa="" offset="100%" stop-color="#B23ACB" stop-opacity="1"></stop></linearGradient></defs><g data-v-fde0c5aa="" id="3aad4f45-dfae-4c40-81bc-dc787c91e247" stroke="none" fill="url(#5f46af06-f61c-4f55-9574-6050bf329082)" transform="matrix(0.719255805015564,0,0,0.719255805015564,113.44310705948389,87.51631827254073)"><g clip-rule="evenodd"><path d="M12.983 10.59l17.018 88.223-5.872-59.049 29.021-1.892-.054-9.883L64.549 1 53.622 18.977z"></path><path d="M59.389 54.548l5.16-53.541-8.74 39.716-19.612 1.045 1.57 20.462-7.766 36.583 12.057-39.899z"></path><path d="M62.8 67.182l.549-10.453-15.979 3.755-.032 11.797-17.337 26.532 21.68-27.616zM65.711 62.394l14.841-4.731 1.509-12.532-15.899 2.095zM72.07 44.502l10.988-1.417 1.581-10.278-8.079-.373L64.549 1l8.43 30.967z"></path><path d="M87.413 31.294l1.256-9.506-9.544-2.694L64.549 1l14.483 22.437-.422 7z"></path></g></g><!----></svg>